<svg width="45" height="45" viewBox="0 0 45 45" fill="none" xmlns="http://www.w3.org/2000/svg">
<path d="M44.9132 24.5786C44.5092 20.5147 42.6936 16.6834 39.8007 13.7904C37.3285 11.3183 34.3026 9.72963 31.1186 9.02325V6.79009C32.419 6.46656 33.3857 5.28942 33.3857 3.89027C33.3857 2.24247 32.0452 0.901937 30.3974 0.901937H24.0691C22.4213 0.901937 21.0808 2.24247 21.0808 3.89027C21.0808 5.28933 22.0474 6.46647 23.3478 6.79009V9.02949C20.1736 9.73886 17.1577 11.3253 14.6925 13.7905C14.153 14.33 13.6555 14.8959 13.2001 15.4841C13.1781 15.4824 13.156 15.4808 13.1335 15.4808H6.87025C6.38491 15.4808 5.99133 15.8743 5.99133 16.3597C5.99133 16.8451 6.38491 17.2386 6.87025 17.2386H12.0042C11.3598 18.3175 10.8402 19.4505 10.4446 20.6168H0.87892C0.39358 20.6168 0 21.0103 0 21.4957C0 21.9812 0.39358 22.3747 0.87892 22.3747H9.94797C9.69466 23.4866 9.54929 24.6182 9.51176 25.753H5.62509C5.13975 25.753 4.74617 26.1465 4.74617 26.6319C4.74617 27.1173 5.13975 27.5108 5.62509 27.5108H9.5398C9.61398 28.6485 9.79688 29.7802 10.0886 30.8891H4.3946C3.90926 30.8891 3.51568 31.2826 3.51568 31.768C3.51568 32.2535 3.90926 32.6469 4.3946 32.6469H10.6495C11.5117 34.9278 12.8592 37.0656 14.6925 38.8989C17.5882 41.7946 21.4234 43.6106 25.4916 44.0125C26.0722 44.0698 26.6532 44.0982 27.2335 44.0982C30.6632 44.0982 34.0494 43.1057 36.9225 41.2346C37.3293 40.9697 37.4444 40.4252 37.1795 40.0184C36.9146 39.6117 36.3701 39.4966 35.9633 39.7615C29.674 43.857 21.2511 42.9715 15.9354 37.6559C9.69844 31.4189 9.69844 21.2706 15.9354 15.0336C22.1723 8.79666 32.3206 8.79666 38.5577 15.0336C43.8663 20.3422 44.7566 28.758 40.6747 35.0442C40.4103 35.4513 40.526 35.9957 40.9331 36.26C41.3404 36.5244 41.8846 36.4086 42.1489 36.0015C44.3298 32.6427 45.3116 28.5861 44.9132 24.5786ZM22.8386 3.89035C22.8386 3.21183 23.3906 2.65987 24.0691 2.65987H30.3974C31.0759 2.65987 31.6278 3.21183 31.6278 3.89035C31.6278 4.56888 31.0759 5.12084 30.3974 5.12084H30.2397H24.2267H24.0691C23.3906 5.12084 22.8386 4.56879 22.8386 3.89035ZM25.1056 8.72731V6.87868H29.3608V8.72415C27.9478 8.5561 26.5183 8.55715 25.1056 8.72731Z" fill="url(#paint0_linear)"/>
<path d="M39.1796 37.3981C38.9476 37.3981 38.7217 37.4921 38.5583 37.6556C38.3939 37.819 38.3007 38.0458 38.3007 38.277C38.3007 38.5081 38.3939 38.7349 38.5583 38.8983C38.7217 39.0627 38.9477 39.1559 39.1796 39.1559C39.4107 39.1559 39.6366 39.0627 39.801 38.8983C39.9645 38.7349 40.0585 38.5081 40.0585 38.277C40.0585 38.0458 39.9645 37.819 39.801 37.6556C39.6366 37.4921 39.4107 37.3981 39.1796 37.3981Z" fill="url(#paint1_linear)"/>
<path d="M27.2466 12.71C19.7285 12.71 13.612 18.8264 13.612 26.3446C13.612 33.8628 19.7285 39.9792 27.2466 39.9792C34.7647 39.9792 40.8812 33.8628 40.8812 26.3446C40.8812 18.8264 34.7647 12.71 27.2466 12.71ZM27.2466 38.2213C20.6977 38.2213 15.3699 32.8934 15.3699 26.3446C15.3699 19.7957 20.6977 14.4678 27.2466 14.4678C33.7955 14.4678 39.1234 19.7957 39.1234 26.3446C39.1234 32.8934 33.7955 38.2213 27.2466 38.2213Z" fill="url(#paint2_linear)"/>
<path d="M32.8063 19.5419L28.453 23.8951C28.089 23.7151 27.6795 23.6134 27.2466 23.6134C26.8137 23.6134 26.4042 23.7151 26.0402 23.8951L24.0919 21.9468C23.7486 21.6036 23.1922 21.6036 22.8488 21.9468C22.5056 22.29 22.5056 22.8466 22.8488 23.1898L24.7971 25.1381C24.6171 25.5021 24.5155 25.9116 24.5155 26.3445C24.5155 27.8504 25.7406 29.0756 27.2466 29.0756C28.7526 29.0756 29.9778 27.8504 29.9778 26.3445C29.9778 25.9116 29.8761 25.5021 29.6961 25.1381L33.9216 20.9126L34.0493 20.7849C34.3925 20.4417 34.3925 19.8851 34.0493 19.5419C33.706 19.1987 33.1497 19.1987 32.8063 19.5419ZM27.2466 27.3179C26.7099 27.3179 26.2733 26.8812 26.2733 26.3446C26.2733 25.8079 26.7099 25.3713 27.2466 25.3713C27.7833 25.3713 28.2199 25.8079 28.2199 26.3446C28.2199 26.8812 27.7833 27.3179 27.2466 27.3179Z" fill="url(#paint3_linear)"/>
<path d="M36.6439 25.4764H35.8296C35.3443 25.4764 34.9507 25.8699 34.9507 26.3553C34.9507 26.8407 35.3443 27.2342 35.8296 27.2342H36.6439C37.1292 27.2342 37.5228 26.8407 37.5228 26.3553C37.5228 25.8699 37.1292 25.4764 36.6439 25.4764Z" fill="url(#paint4_linear)"/>
<path d="M18.6635 25.4549H17.8493C17.3639 25.4549 16.9704 25.8484 16.9704 26.3338C16.9704 26.8193 17.3639 27.2127 17.8493 27.2127H18.6635C19.1488 27.2127 19.5424 26.8193 19.5424 26.3338C19.5424 25.8484 19.1488 25.4549 18.6635 25.4549Z" fill="url(#paint5_linear)"/>
<path d="M27.2573 18.6404C27.7427 18.6404 28.1362 18.2469 28.1362 17.7615V16.9472C28.1362 16.4618 27.7427 16.0683 27.2573 16.0683C26.772 16.0683 26.3784 16.4618 26.3784 16.9472V17.7615C26.3784 18.2469 26.772 18.6404 27.2573 18.6404Z" fill="url(#paint6_linear)"/>
<path d="M27.2359 34.0488C26.7505 34.0488 26.357 34.4422 26.357 34.9277V35.7419C26.357 36.2273 26.7505 36.6208 27.2359 36.6208C27.7212 36.6208 28.1148 36.2273 28.1148 35.7419V34.9277C28.1148 34.4422 27.7212 34.0488 27.2359 34.0488Z" fill="url(#paint7_linear)"/>
<path d="M0.878906 30.8888C0.647754 30.8888 0.420996 30.9828 0.25752 31.1463C0.094043 31.3098 0 31.5365 0 31.7677C0 31.9997 0.0939551 32.2256 0.25752 32.3891C0.421084 32.5525 0.647754 32.6466 0.878906 32.6466C1.11006 32.6466 1.33682 32.5525 1.50021 32.3891C1.66368 32.2256 1.75781 31.9988 1.75781 31.7677C1.75781 31.5365 1.66377 31.3098 1.50021 31.1463C1.33682 30.9828 1.11006 30.8888 0.878906 30.8888Z" fill="url(#paint8_linear)"/>
<defs>
<linearGradient id="paint0_linear" x1="22.5" y1="0.901937" x2="22.5" y2="44.0982" gradientUnits="userSpaceOnUse">
<stop stop-color="#333B9E"/>
<stop offset="1" stop-color="#4EA1D1"/>
</linearGradient>
<linearGradient id="paint1_linear" x1="39.1796" y1="37.3981" x2="39.1796" y2="39.1559" gradientUnits="userSpaceOnUse">
<stop stop-color="#333B9E"/>
<stop offset="1" stop-color="#4EA1D1"/>
</linearGradient>
<linearGradient id="paint2_linear" x1="27.2466" y1="12.71" x2="27.2466" y2="39.9792" gradientUnits="userSpaceOnUse">
<stop stop-color="#333B9E"/>
<stop offset="1" stop-color="#4EA1D1"/>
</linearGradient>
<linearGradient id="paint3_linear" x1="28.4491" y1="19.2845" x2="28.4491" y2="29.0756" gradientUnits="userSpaceOnUse">
<stop stop-color="#333B9E"/>
<stop offset="1" stop-color="#4EA1D1"/>
</linearGradient>
<linearGradient id="paint4_linear" x1="36.2367" y1="25.4764" x2="36.2367" y2="27.2342" gradientUnits="userSpaceOnUse">
<stop stop-color="#333B9E"/>
<stop offset="1" stop-color="#4EA1D1"/>
</linearGradient>
<linearGradient id="paint5_linear" x1="18.2564" y1="25.4549" x2="18.2564" y2="27.2127" gradientUnits="userSpaceOnUse">
<stop stop-color="#333B9E"/>
<stop offset="1" stop-color="#4EA1D1"/>
</linearGradient>
<linearGradient id="paint6_linear" x1="27.2573" y1="16.0683" x2="27.2573" y2="18.6404" gradientUnits="userSpaceOnUse">
<stop stop-color="#333B9E"/>
<stop offset="1" stop-color="#4EA1D1"/>
</linearGradient>
<linearGradient id="paint7_linear" x1="27.2359" y1="34.0488" x2="27.2359" y2="36.6208" gradientUnits="userSpaceOnUse">
<stop stop-color="#333B9E"/>
<stop offset="1" stop-color="#4EA1D1"/>
</linearGradient>
<linearGradient id="paint8_linear" x1="0.878906" y1="30.8888" x2="0.878906" y2="32.6466" gradientUnits="userSpaceOnUse">
<stop stop-color="#333B9E"/>
<stop offset="1" stop-color="#4EA1D1"/>
</linearGradient>
</defs>
</svg>
