<svg width="35" height="43" viewBox="0 0 35 43" fill="none" xmlns="http://www.w3.org/2000/svg">
<path d="M6.54688 33.4531H7.95312V34.8594C7.95312 35.0459 8.0272 35.2247 8.15907 35.3566C8.29093 35.4884 8.46977 35.5625 8.65625 35.5625H11.4688C11.6552 35.5625 11.8341 35.4884 11.9659 35.3566C12.0978 35.2247 12.1719 35.0459 12.1719 34.8594V33.4531H13.5781C13.7646 33.4531 13.9434 33.379 14.0753 33.2472C14.2072 33.1153 14.2812 32.9365 14.2812 32.75V29.9375C14.2812 29.751 14.2072 29.5722 14.0753 29.4403C13.9434 29.3085 13.7646 29.2344 13.5781 29.2344H12.1719V27.8281C12.1719 27.6416 12.0978 27.4628 11.9659 27.3309C11.8341 27.1991 11.6552 27.125 11.4688 27.125H8.65625C8.46977 27.125 8.29093 27.1991 8.15907 27.3309C8.0272 27.4628 7.95312 27.6416 7.95312 27.8281V29.2344H6.54688C6.36039 29.2344 6.18155 29.3085 6.04969 29.4403C5.91783 29.5722 5.84375 29.751 5.84375 29.9375V32.75C5.84375 32.9365 5.91783 33.1153 6.04969 33.2472C6.18155 33.379 6.36039 33.4531 6.54688 33.4531ZM7.25 30.6406H8.65625C8.84273 30.6406 9.02157 30.5665 9.15343 30.4347C9.2853 30.3028 9.35938 30.124 9.35938 29.9375V28.5312H10.7656V29.9375C10.7656 30.124 10.8397 30.3028 10.9716 30.4347C11.1034 30.5665 11.2823 30.6406 11.4688 30.6406H12.875V32.0469H11.4688C11.2823 32.0469 11.1034 32.121 10.9716 32.2528C10.8397 32.3847 10.7656 32.5635 10.7656 32.75V34.1562H9.35938V32.75C9.35938 32.5635 9.2853 32.3847 9.15343 32.2528C9.02157 32.121 8.84273 32.0469 8.65625 32.0469H7.25V30.6406Z" fill="url(#paint0_linear)"/>
<path d="M14.2812 18.6875V17.2812H14.9844C15.1709 17.2812 15.3497 17.2072 15.4816 17.0753C15.6134 16.9434 15.6875 16.7646 15.6875 16.5781V13.7656C15.6858 13.2067 15.4631 12.6711 15.0678 12.2759C14.6726 11.8807 14.1371 11.6579 13.5781 11.6562H6.54688C5.98795 11.6579 5.45239 11.8807 5.05717 12.2759C4.66194 12.6711 4.43917 13.2067 4.4375 13.7656V16.5781C4.4375 16.7646 4.51158 16.9434 4.64344 17.0753C4.7753 17.2072 4.95414 17.2812 5.14062 17.2812H5.84375V18.6875C4.53884 18.689 3.28781 19.208 2.3651 20.1307C1.4424 21.0534 0.923364 22.3045 0.921875 23.6094V40.4844C0.923544 41.0433 1.14632 41.5789 1.54154 41.9741C1.93676 42.3693 2.47232 42.5921 3.03125 42.5938H17.0938C17.6527 42.5921 18.1882 42.3693 18.5835 41.9741C18.9787 41.5789 19.2015 41.0433 19.2031 40.4844V23.6094C19.2016 22.3045 18.6826 21.0534 17.7599 20.1307C16.8372 19.208 15.5862 18.689 14.2812 18.6875ZM5.84375 13.7656C5.84375 13.5791 5.91783 13.4003 6.04969 13.2684C6.18155 13.1366 6.36039 13.0625 6.54688 13.0625H13.5781C13.7646 13.0625 13.9434 13.1366 14.0753 13.2684C14.2072 13.4003 14.2812 13.5791 14.2812 13.7656V15.875H5.84375V13.7656ZM17.7969 40.4844C17.7969 40.6709 17.7228 40.8497 17.5909 40.9816C17.4591 41.1134 17.2802 41.1875 17.0938 41.1875H3.03125C2.84477 41.1875 2.66593 41.1134 2.53407 40.9816C2.4022 40.8497 2.32812 40.6709 2.32812 40.4844V38.375H17.7969V40.4844ZM17.7969 36.9688H2.32812V25.7188H17.7969V36.9688ZM17.7969 24.3125H2.32812V23.6094C2.32812 22.677 2.69852 21.7828 3.35783 21.1235C4.01714 20.4641 4.91135 20.0938 5.84375 20.0938C6.21637 20.0926 6.57341 19.9441 6.83689 19.6806C7.10037 19.4172 7.24889 19.0601 7.25 18.6875V17.2812H12.875V18.6875C12.8761 19.0601 13.0246 19.4172 13.2881 19.6806C13.5516 19.9441 13.9086 20.0926 14.2812 20.0938C15.2137 20.0938 16.1079 20.4641 16.7672 21.1235C17.4265 21.7828 17.7969 22.677 17.7969 23.6094V24.3125Z" fill="url(#paint1_linear)"/>
<path d="M32.5625 35.5625C33.0572 35.5587 33.5348 35.3811 33.9118 35.0608C34.2888 34.7405 34.5413 34.2979 34.6251 33.8104C34.7088 33.3228 34.6186 32.8214 34.3701 32.3936C34.1216 31.9659 33.7307 31.639 33.2656 31.4703V10.9531C33.264 10.3942 33.0412 9.85864 32.646 9.46342C32.2507 9.06819 31.7152 8.84542 31.1563 8.84375H30.4531V8.14062C30.4515 7.5817 30.2287 7.04614 29.8335 6.65092C29.4382 6.25569 28.9027 6.03292 28.3438 6.03125V1.10938C28.3438 0.922895 28.2697 0.744052 28.1378 0.612191C28.006 0.480329 27.8271 0.40625 27.6406 0.40625C27.4541 0.40625 27.2753 0.480329 27.1434 0.612191C27.0116 0.744052 26.9375 0.922895 26.9375 1.10938V6.03125C26.3786 6.03292 25.843 6.25569 25.4478 6.65092C25.0526 7.04614 24.8298 7.5817 24.8281 8.14062V8.84375H24.125C23.5661 8.84542 23.0305 9.06819 22.6353 9.46342C22.2401 9.85864 22.0173 10.3942 22.0156 10.9531V31.4703C21.5506 31.639 21.1597 31.9659 20.9112 32.3936C20.6627 32.8214 20.5724 33.3228 20.6562 33.8104C20.74 34.2979 20.9924 34.7405 21.3695 35.0608C21.7465 35.3811 22.2241 35.5587 22.7187 35.5625H24.8281V38.375H24.125C23.5656 38.375 23.029 38.5972 22.6334 38.9928C22.2379 39.3884 22.0156 39.9249 22.0156 40.4844C22.0156 41.0438 22.2379 41.5803 22.6334 41.9759C23.029 42.3715 23.5656 42.5938 24.125 42.5938H31.1563C31.7157 42.5938 32.2522 42.3715 32.6478 41.9759C33.0434 41.5803 33.2656 41.0438 33.2656 40.4844C33.2656 39.9249 33.0434 39.3884 32.6478 38.9928C32.2522 38.5972 31.7157 38.375 31.1563 38.375H30.4531V35.5625H32.5625ZM26.2344 8.14062C26.2344 7.95414 26.3085 7.7753 26.4403 7.64344C26.5722 7.51158 26.751 7.4375 26.9375 7.4375H28.3438C28.5302 7.4375 28.7091 7.51158 28.8409 7.64344C28.9728 7.7753 29.0469 7.95414 29.0469 8.14062V8.84375H26.2344V8.14062ZM23.4219 10.9531C23.4219 10.7666 23.496 10.5878 23.6278 10.4559C23.7597 10.3241 23.9385 10.25 24.125 10.25H31.1563C31.3427 10.25 31.5216 10.3241 31.6534 10.4559C31.7853 10.5878 31.8594 10.7666 31.8594 10.9531V11.6562H29.75C29.5635 11.6562 29.3847 11.7303 29.2528 11.8622C29.121 11.9941 29.0469 12.1729 29.0469 12.3594C29.0469 12.5459 29.121 12.7247 29.2528 12.8566C29.3847 12.9884 29.5635 13.0625 29.75 13.0625H31.8594V14.4688H28.3438C28.1573 14.4688 27.9784 14.5428 27.8466 14.6747C27.7147 14.8066 27.6406 14.9854 27.6406 15.1719C27.6406 15.3584 27.7147 15.5372 27.8466 15.6691C27.9784 15.8009 28.1573 15.875 28.3438 15.875H31.8594V17.2812H29.75C29.5635 17.2812 29.3847 17.3553 29.2528 17.4872C29.121 17.6191 29.0469 17.7979 29.0469 17.9844C29.0469 18.1709 29.121 18.3497 29.2528 18.4816C29.3847 18.6134 29.5635 18.6875 29.75 18.6875H31.8594V20.0938H28.3438C28.1573 20.0938 27.9784 20.1678 27.8466 20.2997C27.7147 20.4316 27.6406 20.6104 27.6406 20.7969C27.6406 20.9834 27.7147 21.1622 27.8466 21.2941C27.9784 21.4259 28.1573 21.5 28.3438 21.5H31.8594V22.9062H29.75C29.5635 22.9062 29.3847 22.9803 29.2528 23.1122C29.121 23.2441 29.0469 23.4229 29.0469 23.6094C29.0469 23.7959 29.121 23.9747 29.2528 24.1066C29.3847 24.2384 29.5635 24.3125 29.75 24.3125H31.8594V25.7188H28.3438C28.1573 25.7188 27.9784 25.7928 27.8466 25.9247C27.7147 26.0566 27.6406 26.2354 27.6406 26.4219C27.6406 26.6084 27.7147 26.7872 27.8466 26.9191C27.9784 27.0509 28.1573 27.125 28.3438 27.125H31.8594V31.3438H23.4219V10.9531ZM31.1563 39.7812C31.3427 39.7812 31.5216 39.8553 31.6534 39.9872C31.7853 40.1191 31.8594 40.2979 31.8594 40.4844C31.8594 40.6709 31.7853 40.8497 31.6534 40.9816C31.5216 41.1134 31.3427 41.1875 31.1563 41.1875H24.125C23.9385 41.1875 23.7597 41.1134 23.6278 40.9816C23.496 40.8497 23.4219 40.6709 23.4219 40.4844C23.4219 40.2979 23.496 40.1191 23.6278 39.9872C23.7597 39.8553 23.9385 39.7812 24.125 39.7812H31.1563ZM26.2344 38.375V35.5625H29.0469V38.375H26.2344ZM22.7187 34.1562C22.5323 34.1562 22.3534 34.0822 22.2216 33.9503C22.0897 33.8184 22.0156 33.6396 22.0156 33.4531C22.0156 33.2666 22.0897 33.0878 22.2216 32.9559C22.3534 32.8241 22.5323 32.75 22.7187 32.75H32.5625C32.749 32.75 32.9278 32.8241 33.0597 32.9559C33.1916 33.0878 33.2656 33.2666 33.2656 33.4531C33.2656 33.6396 33.1916 33.8184 33.0597 33.9503C32.9278 34.0822 32.749 34.1562 32.5625 34.1562H22.7187Z" fill="url(#paint2_linear)"/>
<defs>
<linearGradient id="paint0_linear" x1="10.0625" y1="27.125" x2="10.0625" y2="35.5625" gradientUnits="userSpaceOnUse">
<stop stop-color="#E3722C"/>
<stop offset="1" stop-color="#C33734"/>
</linearGradient>
<linearGradient id="paint1_linear" x1="10.0625" y1="11.6562" x2="10.0625" y2="42.5938" gradientUnits="userSpaceOnUse">
<stop stop-color="#E3722C"/>
<stop offset="1" stop-color="#C33734"/>
</linearGradient>
<linearGradient id="paint2_linear" x1="27.6406" y1="0.40625" x2="27.6406" y2="42.5938" gradientUnits="userSpaceOnUse">
<stop stop-color="#E3722C"/>
<stop offset="1" stop-color="#C33734"/>
</linearGradient>
</defs>
</svg>
