<svg width="45" height="45" viewBox="0 0 45 45" fill="none" xmlns="http://www.w3.org/2000/svg">
<path d="M45 30.4541C45 23.8949 40.5804 18.1642 34.3481 16.4373C33.9563 7.30728 26.4074 0 17.1826 0C7.70794 0 0 7.70794 0 17.1826C0 20.2705 0.821915 23.2769 2.38266 25.9164L0.0631714 34.3017L8.44883 31.9826C10.8751 33.4173 13.6121 34.2255 16.4369 34.3474C18.1635 40.5801 23.8946 45 30.4541 45C33.0723 45 35.6184 44.3027 37.8555 42.9778L44.9365 44.9365L42.9778 37.8555C44.3027 35.6184 45 33.0723 45 30.4541ZM8.86494 29.1316L3.84487 30.5204L5.23361 25.5003L4.91707 25.0052C3.42533 22.6713 2.63672 19.9663 2.63672 17.1826C2.63672 9.16191 9.16191 2.63672 17.1826 2.63672C25.2033 2.63672 31.7285 9.16191 31.7285 17.1826C31.7285 25.2033 25.2033 31.7285 17.1826 31.7285C14.399 31.7285 11.6943 30.9399 9.36001 29.4482L8.86494 29.1316ZM41.1551 41.1551L37.4301 40.1245L36.9326 40.4482C35.0042 41.701 32.7636 42.3633 30.4541 42.3633C25.2988 42.3633 20.7686 39.03 19.1636 34.2502C27.058 33.3401 33.3401 27.058 34.2506 19.1632C39.03 20.7686 42.3633 25.2988 42.3633 30.4541C42.3633 32.7636 41.701 35.0042 40.4482 36.9326L40.1245 37.4301L41.1551 41.1551Z" fill="url(#paint0_linear)"/>
<path d="M15.8643 23.8184H18.501V26.4551H15.8643V23.8184Z" fill="url(#paint1_linear)"/>
<path d="M19.8193 13.1836C19.8193 13.9324 19.5145 14.6235 18.961 15.1299L15.8643 17.9644V21.1816H18.501V19.1255L20.7412 17.0752C21.8309 16.0778 22.4561 14.6595 22.4561 13.1836C22.4561 10.2757 20.0906 7.91016 17.1826 7.91016C14.2747 7.91016 11.9092 10.2757 11.9092 13.1836H14.5459C14.5459 11.7296 15.7286 10.5469 17.1826 10.5469C18.6366 10.5469 19.8193 11.7296 19.8193 13.1836Z" fill="url(#paint2_linear)"/>
<defs>
<linearGradient id="paint0_linear" x1="22.5" y1="0" x2="22.5" y2="45" gradientUnits="userSpaceOnUse">
<stop stop-color="#54AAD6"/>
<stop offset="1" stop-color="#3D7EBE"/>
</linearGradient>
<linearGradient id="paint1_linear" x1="17.1826" y1="23.8184" x2="17.1826" y2="26.4551" gradientUnits="userSpaceOnUse">
<stop stop-color="#54AAD6"/>
<stop offset="1" stop-color="#3D7EBE"/>
</linearGradient>
<linearGradient id="paint2_linear" x1="17.1826" y1="7.91016" x2="17.1826" y2="21.1816" gradientUnits="userSpaceOnUse">
<stop stop-color="#54AAD6"/>
<stop offset="1" stop-color="#3D7EBE"/>
</linearGradient>
</defs>
</svg>
