<svg width="45" height="45" viewBox="0 0 45 45" fill="none" xmlns="http://www.w3.org/2000/svg">
<g clip-path="url(#clip0)">
<path d="M8.58249 38.3543C8.56815 38.3414 8.55335 38.3292 8.53799 38.3175C8.07923 37.9367 7.62047 37.5284 7.19841 37.1063C6.93026 36.8411 6.49857 36.8411 6.23043 37.1063C5.96205 37.3751 5.96205 37.8102 6.23043 38.0789C6.68918 38.5377 7.14794 38.9643 7.66176 39.3772C7.94424 39.6315 8.37937 39.6085 8.63364 39.3261C8.88779 39.0436 8.86497 38.6086 8.58249 38.3543Z" fill="url(#paint0_linear)"/>
<path d="M1.38065 17.9529C1.0219 17.8275 0.629428 18.0169 0.504072 18.3756C0.485492 18.4288 0.47345 18.4842 0.468404 18.5403C0.330776 19.1688 0.225261 19.8065 0.147272 20.4442C0.0981844 20.8172 0.357613 21.1604 0.729897 21.2149H0.817061C1.16537 21.2151 1.45887 20.9551 1.50061 20.6093C1.57401 20.0129 1.67494 19.412 1.80339 18.8293C1.92875 18.4706 1.7394 18.0781 1.38065 17.9529Z" fill="url(#paint1_linear)"/>
<path d="M5.16152 34.707C4.80828 34.2207 4.47338 33.7161 4.16601 33.2023C3.97173 32.8757 3.54944 32.7683 3.2228 32.9626C3.22223 32.9629 3.22154 32.9633 3.22097 32.9637C2.89433 33.158 2.78698 33.5803 2.98127 33.907C2.98161 33.9075 2.98195 33.9082 2.98241 33.9088C3.31272 34.4593 3.67055 35.0006 4.05132 35.519C4.28609 35.8179 4.7187 35.8698 5.01759 35.635C5.3019 35.4116 5.36487 35.0061 5.16152 34.707Z" fill="url(#paint2_linear)"/>
<path d="M2.7622 30.3672C2.54199 29.8121 2.34014 29.2386 2.1704 28.6606C2.06454 28.2956 1.68274 28.0855 1.31779 28.1914C1.31137 28.1932 1.30506 28.1952 1.29875 28.1972C0.937596 28.3076 0.732874 28.6884 0.839994 29.0505C1.0235 29.6653 1.23453 30.28 1.47308 30.8856C1.61622 31.2415 2.02084 31.414 2.37684 31.2709C2.73284 31.1278 2.90533 30.7232 2.7622 30.3672Z" fill="url(#paint3_linear)"/>
<path d="M3.17279 13.2348C2.83331 13.0638 2.41939 13.2004 2.24839 13.5398C1.95937 14.1133 1.69329 14.7051 1.45932 15.3061C1.32135 15.6582 1.4935 16.0557 1.84468 16.1961C2.19804 16.336 2.59796 16.163 2.73788 15.8097C2.73834 15.8085 2.7388 15.8073 2.73926 15.8061C2.95946 15.2464 3.19802 14.6913 3.47786 14.1592C3.64887 13.8197 3.51227 13.4059 3.17279 13.2348Z" fill="url(#paint4_linear)"/>
<path d="M1.52378 25.5797C1.52367 25.5791 1.52367 25.5784 1.52355 25.5778C1.45015 24.9814 1.39969 24.3759 1.37675 23.7795C1.36287 23.3994 1.04346 23.1027 0.663376 23.1166C0.283293 23.1305 -0.0134099 23.4499 0.000467625 23.83C0.000467625 24.4722 0.0738692 25.1191 0.156446 25.7567C0.203469 26.0903 0.485033 26.3406 0.821648 26.3485H0.927163C1.30426 26.3009 1.57138 25.9566 1.52378 25.5797Z" fill="url(#paint5_linear)"/>
<path d="M19.7799 2.62365C19.7432 2.24357 19.4053 1.96533 19.0252 2.00203C18.3876 2.06626 17.7453 2.15801 17.1122 2.28187C16.7321 2.31731 16.4529 2.65416 16.4883 3.03424C16.5237 3.41432 16.8606 3.69359 17.2407 3.65815L17.2361 3.6398H17.3691C17.9609 3.52511 18.5619 3.43795 19.1583 3.37831C19.5384 3.34161 19.8166 3.00373 19.7799 2.62365Z" fill="url(#paint6_linear)"/>
<path d="M6.16161 9.07152C5.87535 8.81817 5.43781 8.84489 5.18445 9.13116C4.7624 9.61286 4.35869 10.1221 3.9825 10.6451C3.75955 10.9528 3.82825 11.3831 4.13607 11.6061C4.25294 11.6907 4.39332 11.7365 4.5376 11.7369V11.7461C4.75907 11.7469 4.96735 11.641 5.09729 11.4617C5.45054 10.9754 5.82672 10.4983 6.22125 10.0487C6.4746 9.76241 6.44788 9.32499 6.16161 9.07152Z" fill="url(#paint7_linear)"/>
<path d="M24.3147 2.11672C23.6817 2.02038 23.0348 1.95157 22.3925 1.91487C22.0125 1.89204 21.6859 2.18164 21.6631 2.56172C21.6403 2.9418 21.9299 3.26832 22.31 3.29115C22.9155 3.33702 23.5165 3.40125 24.1083 3.493H24.2138C24.5939 3.52087 24.9246 3.23541 24.9524 2.85532C24.9803 2.47536 24.6948 2.14459 24.3147 2.11672Z" fill="url(#paint8_linear)"/>
<path d="M10.0697 5.79265C9.85439 5.5003 9.44907 5.42541 9.14354 5.62165C8.61597 5.98407 8.09757 6.3786 7.6021 6.7869C7.30942 7.03015 7.26939 7.46449 7.51265 7.75718C7.7559 8.04986 8.19024 8.08989 8.48292 7.84663C8.94168 7.46127 9.42797 7.09427 9.92343 6.75478C10.2295 6.52953 10.2949 6.09876 10.0697 5.79265Z" fill="url(#paint9_linear)"/>
<path d="M12.3778 5.23629C12.3755 5.23629 12.3733 5.23583 12.371 5.23583C12.3686 5.23583 12.3663 5.23629 12.364 5.23629H12.3778Z" fill="url(#paint10_linear)"/>
<path d="M14.8043 3.62443C14.7037 3.258 14.325 3.04238 13.9585 3.14308C13.9262 3.15191 13.8947 3.16315 13.8641 3.17657C13.2631 3.39677 12.6621 3.63533 12.0841 3.92435C11.7394 4.08468 11.5901 4.49401 11.7504 4.83854C11.8628 5.08019 12.1048 5.23457 12.3709 5.23594C12.4702 5.23399 12.5681 5.21094 12.6575 5.16759C13.1989 4.91068 13.7586 4.67671 14.3228 4.47027C14.6895 4.36957 14.905 3.99087 14.8043 3.62443Z" fill="url(#paint11_linear)"/>
<path d="M23.1243 43.4304C23.1002 43.0503 22.7726 42.7617 22.3925 42.7858C21.7916 42.8317 21.186 42.8454 20.585 42.8271C20.2049 42.817 19.8886 43.1168 19.8785 43.4969C19.8684 43.877 20.1682 44.1933 20.5483 44.2034H21.1309C21.5897 44.2034 22.0485 44.2034 22.4797 44.1621C22.8598 44.1381 23.1483 43.8104 23.1243 43.4304Z" fill="url(#paint12_linear)"/>
<path d="M41.1352 27.4884C40.7666 27.3947 40.3916 27.6176 40.2979 27.9862C40.1511 28.5688 39.9722 29.1469 39.7704 29.7111C39.6507 30.0655 39.8361 30.4507 40.1878 30.5782C40.5456 30.7065 40.9396 30.5205 41.068 30.1628C41.0682 30.1621 41.0684 30.1614 41.0687 30.1607C41.2843 29.5552 41.4724 28.9358 41.6329 28.3257C41.7268 27.9571 41.5038 27.5823 41.1352 27.4884Z" fill="url(#paint13_linear)"/>
<path d="M42.0137 19.6092C41.9082 18.9762 41.7752 18.3385 41.6146 17.7191C41.5047 17.3554 41.1206 17.1495 40.7568 17.2595C40.4119 17.3636 40.2058 17.7162 40.2842 18.0678C40.4356 18.6458 40.5594 19.2422 40.6604 19.834C40.7197 20.1583 41.0005 20.3949 41.3302 20.3983H41.4448C41.8198 20.3374 42.0744 19.9843 42.0137 19.6092Z" fill="url(#paint14_linear)"/>
<path d="M44.9384 11.7109C44.9061 11.6406 44.8618 11.5765 44.8076 11.5214L43.5918 10.2552C43.4177 10.0814 43.1619 10.0178 42.9266 10.0901L40.7338 10.7553L38.1647 8.03025L43.9313 4.81893C44.2674 4.66422 44.4143 4.26636 44.2595 3.93043C44.2271 3.86012 44.1828 3.79601 44.1286 3.74096L42.5092 2.12154C42.3327 1.95191 42.0776 1.89204 41.844 1.96556L34.5359 4.17678L32.077 1.56644C31.4503 0.841826 30.4301 0.599715 29.5446 0.965462H29.5033C28.8357 1.24026 28.3055 1.77047 28.0307 2.43808C27.9614 2.61241 27.9122 2.79397 27.8839 2.97942L27.6041 2.88308C27.2418 2.76655 26.8535 2.96577 26.737 3.32808C26.6205 3.69038 26.8197 4.07861 27.182 4.19513C27.5352 4.30982 27.8885 4.43828 28.2417 4.57132C28.348 4.73762 28.4727 4.89153 28.6133 5.03008L31.2053 7.48903L30.4621 9.9434C23.1933 4.75838 13.0975 6.44765 7.91247 13.7165C2.72745 20.9853 4.41672 31.081 11.6855 36.266C18.9544 41.451 29.0502 39.7618 34.2352 32.4929C38.37 26.6964 38.2257 18.8772 33.8799 13.2372L35.0543 11.1177L37.7794 13.6868L37.1233 15.8567C37.0443 16.0951 37.1065 16.3578 37.2839 16.5357C37.2839 16.5357 38.6281 17.8661 38.6602 17.9119C38.978 18.0961 39.385 17.9879 39.5693 17.6701C39.5722 17.6651 39.5751 17.6601 39.5777 17.655L41.3714 14.3657L44.6103 12.5995C44.9463 12.4447 45.0933 12.0468 44.9384 11.7109ZM10.685 12.6177C13.4507 9.85325 17.2021 8.30184 21.1126 8.3054C21.4185 8.3054 21.7242 8.31457 22.0301 8.33292C24.6313 10.7322 23.8652 12.9205 22.1219 14.8932C21.0931 15.9842 19.9894 17.0021 18.8188 17.9394C17.126 19.3799 15.5478 20.724 14.9515 22.0682C14.245 23.6647 14.7634 25.1098 17.6168 26.3714C19.0436 27.0045 19.8189 27.4953 20.1217 27.8669C20.1262 27.8723 20.1305 27.8761 20.135 27.8794C20.1256 27.8823 20.1161 27.8854 20.1033 27.8899C19.4124 28.153 18.677 28.2791 17.938 28.2615C14.4789 28.4083 12.0154 26.197 10.1024 24.4859C8.72608 23.261 7.58377 22.2425 6.39558 22.2334C6.59193 18.6093 8.11948 15.1851 10.685 12.6177ZM35.9122 23.0683H35.9168C35.9147 29.4623 31.8043 35.1309 25.7277 37.1201C25.5571 36.0449 25.7559 34.9435 26.292 33.996C27.0189 32.8285 27.9516 31.8027 29.0446 30.9681C33.2789 27.4357 33.5175 25.463 33.701 23.9445C33.8157 22.9857 33.9028 22.2701 35.7975 21.2287C35.8735 21.8389 35.9119 22.4533 35.9122 23.0683ZM35.0589 18.1045C35.264 18.6821 35.4325 19.2721 35.5635 19.8707C32.6779 21.3388 32.5495 22.3847 32.3752 23.8115C32.2192 25.096 32.0173 26.7751 28.1913 29.968C26.9658 30.9056 25.9238 32.0611 25.1176 33.3766C24.4146 34.6192 24.171 36.0693 24.4294 37.4734C16.4712 39.2926 8.5451 34.3159 6.72589 26.3578C6.51784 25.4477 6.3965 24.5198 6.36347 23.5867C7.09289 23.5867 8.03794 24.4538 9.1986 25.486C11.2997 27.3623 13.9881 29.757 17.993 29.6148C18.9367 29.6311 19.8736 29.4531 20.7456 29.0918C21.1132 28.9293 21.3914 28.6142 21.5071 28.2293C21.6049 27.8001 21.4809 27.3504 21.1768 27.032C20.7456 26.5044 19.8005 25.8805 18.1765 25.1557C16.236 24.2978 15.8139 23.4628 16.1947 22.6095C16.6535 21.536 18.1307 20.3157 19.6996 18.9395C20.9222 17.9514 22.0735 16.8784 23.1449 15.7281C25.0625 13.5444 26.0489 11.1635 24.0991 8.55771C26.266 9.00065 28.3047 9.92757 30.063 11.269L29.0079 14.751C28.93 14.9895 28.9919 15.2516 29.1684 15.4299C29.1684 15.4299 30.8796 17.1274 30.9347 17.1595C31.2525 17.3437 31.6595 17.2354 31.8438 16.9176C31.8467 16.9127 31.8494 16.9076 31.8522 16.9026L33.1872 14.4895C33.9752 15.6022 34.6051 16.8188 35.0589 18.1045ZM41.2109 12.9802L40.6191 13.2738C40.4866 13.3395 40.3799 13.4476 40.3163 13.5811L40.0227 14.1775L38.8804 16.2419L38.5455 15.8749L39.2107 13.6775C39.2882 13.42 39.2031 13.1413 38.9951 12.971L35.3755 9.5624C35.1134 9.30492 34.6922 9.3087 34.4348 9.57077C34.4286 9.57708 34.4226 9.58339 34.4166 9.58992C34.3708 9.64039 31.1136 15.5079 31.1136 15.5079L30.4025 14.7969L32.6229 7.47963C32.7025 7.22077 32.6172 6.93955 32.4073 6.76855L29.5263 4.05728C29.2074 3.78718 29.1014 3.34092 29.2648 2.95625C29.4111 2.62296 29.6783 2.35745 30.0125 2.21306H30.0355C30.4155 2.06637 30.8466 2.17693 31.109 2.48832L33.8615 5.39686C34.0344 5.58242 34.2977 5.65365 34.5405 5.58036L41.8807 3.36455L42.5917 4.07563L36.7655 7.27777C36.443 7.45371 36.3242 7.85787 36.5002 8.18027C36.503 8.18531 36.5057 8.19025 36.5086 8.19529C36.5361 8.24576 40.0456 11.9801 40.0456 11.9801C40.2195 12.164 40.4827 12.2334 40.7246 12.159L42.9312 11.4938L43.2753 11.8378L41.2109 12.9802Z" fill="url(#paint15_linear)"/>
<path d="M39.4384 32.3247C39.4285 32.3188 39.4183 32.3131 39.4079 32.3078C39.0791 32.1359 38.6732 32.2556 38.4904 32.5785C38.2014 33.1061 37.8849 33.6245 37.5454 34.1199C37.3262 34.4315 37.4012 34.8619 37.7128 35.081C38.0244 35.3002 38.4548 35.2252 38.6739 34.9136C39.0318 34.3814 39.3712 33.8263 39.6832 33.2666C39.8758 32.9389 39.7661 32.5171 39.4384 32.3247Z" fill="url(#paint16_linear)"/>
<path d="M41.6146 22.2792C41.2346 22.2741 40.9223 22.5779 40.917 22.9578C40.9169 22.9671 40.9169 22.9764 40.9173 22.9857V23.0637C40.9173 23.6647 40.8897 24.2702 40.8347 24.8712C40.8003 25.2497 41.0791 25.5845 41.4576 25.6189C41.4579 25.6189 41.4583 25.619 41.4586 25.619H41.5228C41.8858 25.6224 42.189 25.3433 42.2156 24.9813C42.2752 24.3436 42.3027 23.6968 42.3027 23.0545V22.9628C42.3002 22.5845 41.9928 22.2792 41.6146 22.2792Z" fill="url(#paint17_linear)"/>
<path d="M17.4517 42.483C16.8553 42.3821 16.2635 42.2536 15.6901 42.0793C15.3315 41.9533 14.9387 42.1417 14.8126 42.5002C14.6864 42.8587 14.875 43.2515 15.2335 43.3777C15.2597 43.387 15.2867 43.3946 15.3139 43.4006C15.9286 43.575 16.5617 43.7264 17.1948 43.8594H17.3232C17.7033 43.8948 18.0402 43.6156 18.0756 43.2355C18.1111 42.8554 17.8318 42.5186 17.4517 42.483Z" fill="url(#paint18_linear)"/>
<path d="M28.0992 42.2739C27.9747 41.9361 27.6108 41.7512 27.2646 41.85V41.8684C26.6957 42.0565 26.1085 42.217 25.5259 42.3271C25.1547 42.4108 24.9216 42.7795 25.0052 43.1506C25.0888 43.5218 25.4575 43.7549 25.8287 43.6713C26.4526 43.5291 27.0811 43.3548 27.6912 43.1575C28.0479 43.0261 28.2305 42.6305 28.0992 42.2739Z" fill="url(#paint19_linear)"/>
<path d="M12.731 40.9829C12.1851 40.7122 11.6484 40.4186 11.13 40.125C10.8018 39.9324 10.3798 40.0423 10.1872 40.3704C9.99465 40.6986 10.1045 41.1206 10.4327 41.3132C10.9878 41.6389 11.5612 41.9417 12.1438 42.2307C12.4884 42.3929 12.8992 42.2449 13.0613 41.9004C13.2235 41.5559 13.0757 41.145 12.731 40.9829Z" fill="url(#paint20_linear)"/>
<path d="M36.5149 36.5563C36.2392 36.3045 35.8129 36.3185 35.5544 36.5881H35.559C35.1461 37.0468 34.7102 37.4505 34.2652 37.8497C33.9815 38.103 33.9568 38.5385 34.2102 38.8222C34.4635 39.106 34.899 39.1306 35.1828 38.8773C35.6415 38.4506 36.1278 37.9965 36.5591 37.5285C36.8154 37.2478 36.7955 36.8125 36.5149 36.5563Z" fill="url(#paint21_linear)"/>
<path d="M32.7182 39.9887C32.5232 39.6626 32.1007 39.5562 31.7744 39.7512C31.7634 39.7577 31.7526 39.7646 31.7421 39.7719V39.7535C31.2374 40.0746 30.7098 40.3774 30.1777 40.671C29.8395 40.8446 29.706 41.2595 29.8795 41.5977C30.053 41.9359 30.468 42.0694 30.8062 41.8959C31.375 41.6023 31.9393 41.2766 32.4807 40.9325C32.8068 40.7374 32.9133 40.3149 32.7182 39.9887Z" fill="url(#paint22_linear)"/>
</g>
<defs>
<linearGradient id="paint0_linear" x1="7.4197" y1="36.9074" x2="7.4197" y2="39.5539" gradientUnits="userSpaceOnUse">
<stop stop-color="#EDB533"/>
<stop offset="1" stop-color="#B06B27"/>
</linearGradient>
<linearGradient id="paint1_linear" x1="0.991695" y1="17.9142" x2="0.991695" y2="21.2149" gradientUnits="userSpaceOnUse">
<stop stop-color="#EDB533"/>
<stop offset="1" stop-color="#B06B27"/>
</linearGradient>
<linearGradient id="paint2_linear" x1="4.08253" y1="32.8658" x2="4.08253" y2="35.7821" gradientUnits="userSpaceOnUse">
<stop stop-color="#EDB533"/>
<stop offset="1" stop-color="#B06B27"/>
</linearGradient>
<linearGradient id="paint3_linear" x1="1.81205" y1="28.164" x2="1.81205" y2="31.3213" gradientUnits="userSpaceOnUse">
<stop stop-color="#EDB533"/>
<stop offset="1" stop-color="#B06B27"/>
</linearGradient>
<linearGradient id="paint4_linear" x1="2.48166" y1="13.161" x2="2.48166" y2="16.2446" gradientUnits="userSpaceOnUse">
<stop stop-color="#EDB533"/>
<stop offset="1" stop-color="#B06B27"/>
</linearGradient>
<linearGradient id="paint5_linear" x1="0.764636" y1="23.1161" x2="0.764636" y2="26.3485" gradientUnits="userSpaceOnUse">
<stop stop-color="#EDB533"/>
<stop offset="1" stop-color="#B06B27"/>
</linearGradient>
<linearGradient id="paint6_linear" x1="18.1342" y1="1.99878" x2="18.1342" y2="3.66119" gradientUnits="userSpaceOnUse">
<stop stop-color="#EDB533"/>
<stop offset="1" stop-color="#B06B27"/>
</linearGradient>
<linearGradient id="paint7_linear" x1="5.12333" y1="8.89769" x2="5.12333" y2="11.7461" gradientUnits="userSpaceOnUse">
<stop stop-color="#EDB533"/>
<stop offset="1" stop-color="#B06B27"/>
</linearGradient>
<linearGradient id="paint8_linear" x1="23.3081" y1="1.9136" x2="23.3081" y2="3.49488" gradientUnits="userSpaceOnUse">
<stop stop-color="#EDB533"/>
<stop offset="1" stop-color="#B06B27"/>
</linearGradient>
<linearGradient id="paint9_linear" x1="8.77856" y1="5.51243" x2="8.77856" y2="8.00581" gradientUnits="userSpaceOnUse">
<stop stop-color="#EDB533"/>
<stop offset="1" stop-color="#B06B27"/>
</linearGradient>
<linearGradient id="paint10_linear" x1="12.3709" y1="5.23583" x2="12.3709" y2="5.23629" gradientUnits="userSpaceOnUse">
<stop stop-color="#EDB533"/>
<stop offset="1" stop-color="#B06B27"/>
</linearGradient>
<linearGradient id="paint11_linear" x1="13.2575" y1="3.11832" x2="13.2575" y2="5.23594" gradientUnits="userSpaceOnUse">
<stop stop-color="#EDB533"/>
<stop offset="1" stop-color="#B06B27"/>
</linearGradient>
<linearGradient id="paint12_linear" x1="21.502" y1="42.7844" x2="21.502" y2="44.2034" gradientUnits="userSpaceOnUse">
<stop stop-color="#EDB533"/>
<stop offset="1" stop-color="#B06B27"/>
</linearGradient>
<linearGradient id="paint13_linear" x1="40.6942" y1="27.467" x2="40.6942" y2="30.6188" gradientUnits="userSpaceOnUse">
<stop stop-color="#EDB533"/>
<stop offset="1" stop-color="#B06B27"/>
</linearGradient>
<linearGradient id="paint14_linear" x1="41.1451" y1="17.2299" x2="41.1451" y2="20.3983" gradientUnits="userSpaceOnUse">
<stop stop-color="#EDB533"/>
<stop offset="1" stop-color="#B06B27"/>
</linearGradient>
<linearGradient id="paint15_linear" x1="24.953" y1="0.796827" x2="24.953" y2="39.2726" gradientUnits="userSpaceOnUse">
<stop stop-color="#EDB533"/>
<stop offset="1" stop-color="#B06B27"/>
</linearGradient>
<linearGradient id="paint16_linear" x1="38.599" y1="32.2294" x2="38.599" y2="35.2067" gradientUnits="userSpaceOnUse">
<stop stop-color="#EDB533"/>
<stop offset="1" stop-color="#B06B27"/>
</linearGradient>
<linearGradient id="paint17_linear" x1="41.5673" y1="22.2792" x2="41.5673" y2="25.619" gradientUnits="userSpaceOnUse">
<stop stop-color="#EDB533"/>
<stop offset="1" stop-color="#B06B27"/>
</linearGradient>
<linearGradient id="paint18_linear" x1="16.426" y1="42.0402" x2="16.426" y2="43.8624" gradientUnits="userSpaceOnUse">
<stop stop-color="#EDB533"/>
<stop offset="1" stop-color="#B06B27"/>
</linearGradient>
<linearGradient id="paint19_linear" x1="26.565" y1="41.8235" x2="26.565" y2="43.6883" gradientUnits="userSpaceOnUse">
<stop stop-color="#EDB533"/>
<stop offset="1" stop-color="#B06B27"/>
</linearGradient>
<linearGradient id="paint20_linear" x1="11.6098" y1="40.0301" x2="11.6098" y2="42.2965" gradientUnits="userSpaceOnUse">
<stop stop-color="#EDB533"/>
<stop offset="1" stop-color="#B06B27"/>
</linearGradient>
<linearGradient id="paint21_linear" x1="35.3871" y1="36.3763" x2="35.3871" y2="39.0523" gradientUnits="userSpaceOnUse">
<stop stop-color="#EDB533"/>
<stop offset="1" stop-color="#B06B27"/>
</linearGradient>
<linearGradient id="paint22_linear" x1="31.3096" y1="39.6536" x2="31.3096" y2="41.972" gradientUnits="userSpaceOnUse">
<stop stop-color="#EDB533"/>
<stop offset="1" stop-color="#B06B27"/>
</linearGradient>
<clipPath id="clip0">
<rect width="45" height="45" fill="white"/>
</clipPath>
</defs>
</svg>
